<svg xmlns="http://www.w3.org/2000/svg" viewBox="0 0 20.87 19.85"><defs><style>.cls-1,.cls-3{fill:#98b266;}.cls-2{fill:#316649;}.cls-2,.cls-3{fill-rule:evenodd;}</style></defs><g id="Layer_2" data-name="Layer 2"><g id="Layer_1-2" data-name="Layer 1"><polygon class="cls-1" points="1.42 19.45 2.33 18.13 2.33 17.83 0.91 17.83 0.91 18.2 1.75 18.2 0.85 19.52 0.85 19.82 2.37 19.82 2.37 19.45 1.42 19.45 1.42 19.45"/><path class="cls-1" d="M3.25,17.82l-.74,2H3l.14-.46h.64l.14.46h.46l-.71-2ZM3.17,19l.24-.75h0l.24.75Z"/><polygon class="cls-1" points="4.44 18.2 4.98 18.2 4.98 19.82 5.42 19.82 5.42 18.2 5.96 18.2 5.96 17.83 4.44 17.83 4.44 18.2"/><path class="cls-1" d="M6.81,17.82l-.74,2h.45l.14-.46h.63l.15.46h.45l-.71-2ZM6.73,19,7,18.28H7l.24.75Z"/><path class="cls-1" d="M9.65,18.47a.63.63,0,0,0-.7-.64H8.09v2h.45v-.71h.3l.37.71h.51l-.44-.77A.58.58,0,0,0,9.65,18.47Zm-.74.27H8.54V18.2h.38a.25.25,0,0,1,.28.27A.26.26,0,0,1,8.91,18.74Z"/><path class="cls-1" d="M11.3,18.62c-.22-.06-.42-.11-.42-.26s.11-.2.29-.2a2.77,2.77,0,0,1,.71.12v-.37a2.48,2.48,0,0,0-.72-.11c-.41,0-.73.16-.73.56s.34.54.62.63.43.12.43.27-.13.23-.34.23a4.18,4.18,0,0,1-.74-.1v.36a2.7,2.7,0,0,0,.76.1c.44,0,.77-.19.77-.62S11.59,18.71,11.3,18.62Z"/><path class="cls-1" d="M12.81,17.82l-.74,2h.44l.14-.46h.64l.14.46h.46l-.71-2ZM12.73,19l.24-.75h0l.23.75Z"/><polygon class="cls-1" points="15.33 18.45 15.13 18.93 14.93 18.45 14.65 17.83 14.09 17.83 14.09 19.82 14.5 19.82 14.49 18.48 14.95 19.51 15.26 19.51 15.72 18.48 15.71 19.82 16.16 19.82 16.16 17.83 15.59 17.83 15.33 18.45"/><path class="cls-1" d="M17.11,17.82l-.74,2h.45l.13-.46h.64l.14.46h.46l-.71-2ZM17,19l.24-.75h0l.24.75Z"/><path class="cls-1" d="M19.58,19.05a.58.58,0,0,0,.37-.58.63.63,0,0,0-.7-.64h-.86v2h.45v-.71h.3l.37.71H20Zm-.37-.31h-.37V18.2h.37a.27.27,0,1,1,0,.54Z"/><path class="cls-1" d="M10.83,15.23V14.05h-.51v1.18a.25.25,0,0,1-.26.25c-.17,0-.27-.09-.27-.24v-.78H9.28v.78a.24.24,0,0,1-.28.25.23.23,0,0,1-.25-.25v-.78H8.23v.78a.23.23,0,0,1-.25.24H7.73a.19.19,0,0,1-.21-.21v-.38A.86.86,0,0,0,6.64,14h0a.85.85,0,0,0-.87.88v.38a.2.2,0,0,1-.22.21H1.91V14.14H1.39V16a.33.33,0,0,1-.34.34H.86v.52h.19A.84.84,0,0,0,1.91,16v0h3.6A.7.7,0,0,0,6,15.78a1.06,1.06,0,0,0,.63.21.79.79,0,0,0,.55-.23.63.63,0,0,0,.52.24H8a.75.75,0,0,0,.51-.2A.71.71,0,0,0,9,16a.78.78,0,0,0,.54-.21.72.72,0,0,0,.53.2A.77.77,0,0,0,10.83,15.23ZM7,15.11a.35.35,0,0,1-.34.36.51.51,0,0,1-.42-.19v-.39a.34.34,0,0,1,.36-.36h0a.34.34,0,0,1,.36.36Z"/><path class="cls-1" d="M16.16,13.9a.31.31,0,1,0-.31-.31A.31.31,0,0,0,16.16,13.9Z"/><path class="cls-1" d="M15.33,13.9a.31.31,0,1,0,0-.61.31.31,0,0,0,0,.61Z"/><path class="cls-1" d="M16.8,16h1.88v-.52H18.1c-.32,0-.56-.12-.56-.51s.44-.68,1-.48V14C17.8,13.76,17,14,17,15a.78.78,0,0,0,.17.52h-.88c-.23,0-.29-.14-.29-.31v-.09A.49.49,0,0,0,16,15v-.79h-.53v1c0,.17-.05.31-.29.31H12.92V14.14H12.4V16a.33.33,0,0,1-.34.34h-.19v.52h.19a.84.84,0,0,0,.86-.86v0h2.25a.72.72,0,0,0,.55-.22.65.65,0,0,0,.47.22h.61Z"/><path class="cls-1" d="M19.45,13.78a.31.31,0,0,0,0-.61.31.31,0,1,0,0,.61Z"/><path class="cls-1" d="M18.67,16.89h.19a.84.84,0,0,0,.86-.86V14.14h-.51V16a.33.33,0,0,1-.35.34h-.19Z"/><path class="cls-2" d="M10.11,9.65a4.86,4.86,0,0,1-2.34,2.26c-2.07.85-4.13-.29-5.07-.81A8.58,8.58,0,0,1,0,8.69a10.66,10.66,0,0,0,1.21-.4c.66-.25,1-.48,1.88-.93a10,10,0,0,1,1-.44,7.65,7.65,0,0,1,1.18-.33,4.49,4.49,0,0,0,.27.56A4.29,4.29,0,0,0,7,8.63a5.17,5.17,0,0,0,1.63.64c.3.07.56.11.75.14a4.77,4.77,0,0,1-.93.51,4.68,4.68,0,0,1-2.07.33,6.66,6.66,0,0,1-1.87-.34,8.79,8.79,0,0,1-1.4-.54,5.44,5.44,0,0,0,1.45.83,5.87,5.87,0,0,0,2.5.35A7,7,0,0,0,10.11,9.65Z"/><path class="cls-3" d="M10,9.24a5.08,5.08,0,0,1-2.56-.6A4.45,4.45,0,0,1,5.72,7.07,5.16,5.16,0,0,1,5.06,4.5,10.93,10.93,0,0,1,5.82,0c.25.25.54.52.86.79s.43.32,1.55,1.05a8.88,8.88,0,0,1,1.32.93,6.91,6.91,0,0,1,.68.7A4.36,4.36,0,0,0,9.51,4.9,4.66,4.66,0,0,0,9.44,7,5.69,5.69,0,0,0,10,8.78c-.15-.1-.36-.24-.59-.42A6.9,6.9,0,0,1,8.18,7.08a7,7,0,0,1-1-1.93,10.55,10.55,0,0,1-.42-2.1A4.75,4.75,0,0,0,6.9,5.23,6.38,6.38,0,0,0,7.7,7,6.77,6.77,0,0,0,9,8.43,9.23,9.23,0,0,0,10,9.24Z"/><path class="cls-2" d="M10.35,8.88A5.44,5.44,0,0,1,9.69,7,4.44,4.44,0,0,1,9.82,4.7a4.42,4.42,0,0,1,1.51-2A8,8,0,0,1,13.85,1.4a14.84,14.84,0,0,1,2.4-.7,7.32,7.32,0,0,0-.21.94,12.7,12.7,0,0,0-.14,1.27c0,.67,0,.66-.05,1.18a7.53,7.53,0,0,1-.19,1.54,4.16,4.16,0,0,1-.61,1.31A4.49,4.49,0,0,1,13.4,8.26a8.53,8.53,0,0,1-2.35.85A4.76,4.76,0,0,1,11,7.43a5.17,5.17,0,0,1,.83-2.14A7.12,7.12,0,0,1,14.17,3a5.77,5.77,0,0,0-2.42,1.85,6.24,6.24,0,0,0-.91,1.7A8,8,0,0,0,10.35,8.88Z"/><path class="cls-3" d="M15.58,6.52a9.37,9.37,0,0,1,2.37,1,10.32,10.32,0,0,1,1.19.87,14.23,14.23,0,0,1,1.73,1.65,7.42,7.42,0,0,0-.94.29,16.21,16.21,0,0,0-1.75.82,7,7,0,0,1-3,1,3.52,3.52,0,0,1-1.55-.39,9.27,9.27,0,0,1-2.67-2,5.31,5.31,0,0,1,1.43-.88A5.45,5.45,0,0,1,14,8.51a5.84,5.84,0,0,1,1.84.2,9.49,9.49,0,0,1,2,.72,7.41,7.41,0,0,0-1-.65,5.22,5.22,0,0,0-2.15-.61,4.59,4.59,0,0,0-.72,0,4.65,4.65,0,0,0,.77-.57,4.5,4.5,0,0,0,.61-.7A4.15,4.15,0,0,0,15.58,6.52Z"/></g></g></svg>